# 3ds Max Wavefront OBJ Exporter v0.97b - (c)2007 guruware
# File Created: 26.04.2012 01:45:26

mtllib boxHole.mtl

#
# object Box003
#

v  0.3356 0.5000 -0.0154
v  0.3314 0.5000 0.0308
v  0.5000 0.5000 0.5000
v  0.5000 0.5000 -0.5000
v  0.1184 0.5000 -0.3144
v  -0.5000 0.5000 -0.5000
v  0.0731 0.5000 -0.3247
v  -0.2624 0.5000 -0.2097
v  -0.2863 0.5000 -0.1699
v  -0.5000 0.5000 0.5000
v  0.1318 0.5000 0.3057
v  0.0890 0.5000 0.3239
v  -0.2500 0.5000 0.2198
v  -0.2806 0.5000 0.1848
v  0.0907 -0.3112 0.5000
v  -0.1775 -0.2872 0.5000
v  0.5000 -0.5000 0.5000
v  -0.5000 -0.5000 0.5000
v  -0.3189 -0.0581 0.5000
v  -0.3427 0.0000 0.5000
v  -0.1533 0.3065 0.5000
v  -0.0907 0.3112 0.5000
v  0.1775 0.2872 0.5000
v  0.3189 0.0581 0.5000
v  0.3427 0.0000 0.5000
v  0.1533 -0.3065 0.5000
v  0.5000 -0.3367 -0.0000
v  0.5000 -0.5000 -0.5000
v  0.5000 -0.3090 -0.0830
v  0.5000 -0.3090 0.0830
v  0.5000 -0.1601 0.2665
v  0.5000 0.0000 0.3010
v  0.5000 0.1629 0.2481
v  0.5000 0.2912 0.1135
v  0.5000 0.3246 -0.0000
v  0.5000 0.2912 -0.1135
v  0.5000 0.1629 -0.2481
v  0.5000 0.0000 -0.3010
v  0.5000 -0.1601 -0.2665
v  -0.3189 -0.0581 -0.5000
v  -0.1775 -0.2872 -0.5000
v  -0.5000 -0.5000 -0.5000
v  -0.3427 0.0000 -0.5000
v  0.0907 -0.3112 -0.5000
v  0.1533 -0.3065 -0.5000
v  0.3427 0.0000 -0.5000
v  0.3189 0.0581 -0.5000
v  0.1775 0.2872 -0.5000
v  -0.0907 0.3112 -0.5000
v  -0.1533 0.3065 -0.5000
v  -0.5000 -0.2912 0.1135
v  -0.5000 -0.3246 0.0000
v  -0.5000 -0.2912 -0.1135
v  -0.5000 -0.1629 -0.2481
v  -0.5000 0.0000 -0.3010
v  -0.5000 0.1601 -0.2665
v  -0.5000 0.3090 -0.0830
v  -0.5000 0.3367 0.0000
v  -0.5000 0.3090 0.0830
v  -0.5000 0.1601 0.2665
v  -0.5000 0.0000 0.3010
v  -0.5000 -0.1629 0.2481
v  0.2624 -0.5000 0.2097
v  0.2863 -0.5000 0.1699
v  -0.0731 -0.5000 0.3247
v  -0.1184 -0.5000 0.3144
v  -0.3314 -0.5000 0.0308
v  -0.3356 -0.5000 -0.0154
v  -0.1318 -0.5000 -0.3057
v  -0.0890 -0.5000 -0.3239
v  0.2624 -0.5000 -0.2097
v  0.2863 -0.5000 -0.1699
v  0.3593 0.0000 -0.4946
v  0.1607 -0.3214 -0.4946
v  0.4424 -0.2734 -0.3214
v  -0.4207 -0.3214 0.3057
v  -0.3593 0.0000 0.4946
v  0.1607 -0.3214 0.4946
v  0.3593 0.0000 0.4946
v  0.4424 -0.2734 0.3214
v  0.4207 0.3214 -0.3057
v  -0.3593 0.0000 -0.4946
v  -0.1607 0.3214 -0.4946
v  -0.4424 0.2734 -0.3214
v  -0.1607 0.3214 0.4946
v  -0.4424 0.2734 0.3214
v  -0.4207 -0.3214 -0.3057
v  0.4207 0.3214 0.3057
# 88 vertices

vn 0.0000 1.0000 -0.0000
vn 0.0000 0.0000 1.0000
vn 1.0000 0.0000 -0.0000
vn 0.0000 0.0000 -1.0000
vn -1.0000 0.0000 -0.0000
vn -0.0000 -1.0000 0.0000
vn -0.0000 -1.0000 -0.0000
vn 0.0000 -1.0000 -0.0000
vn 0.0000 -1.0000 0.0000
vn -0.5346 0.3304 0.7779
vn 0.7947 0.1876 -0.5773
vn 0.7947 0.1876 -0.5774
vn -0.3035 0.1876 -0.9342
vn -0.5346 0.3304 -0.7779
vn -0.5563 -0.3434 0.7568
vn -0.5746 -0.3304 0.7488
vn 0.5346 -0.3304 0.7779
vn 0.3035 -0.1876 -0.9342
vn 0.5346 -0.3304 -0.7779
vn -0.8026 0.1256 -0.5831
vn 0.3315 0.5363 0.7762
vn 0.0723 0.8074 0.5856
vn 0.0536 0.6497 0.7583
vn 0.3987 0.6773 0.6183
vn 0.8407 0.5363 -0.0754
vn 0.7060 0.6794 -0.2000
vn 0.7121 0.6766 -0.1875
vn 0.1881 0.5363 -0.8228
vn 0.0596 0.6655 -0.7440
vn 0.0418 0.6766 -0.7352
vn -0.1847 0.8016 0.5685
vn -0.7393 0.5079 0.4421
vn -0.6816 0.6940 0.2318
vn -0.6863 0.6766 0.2669
vn -0.4713 0.6617 0.5831
vn 0.4932 0.7980 0.3463
vn 0.4818 0.7980 -0.3620
vn -0.1954 0.7980 -0.5701
vn -0.4713 0.6617 -0.5831
vn -0.6863 0.6766 -0.2669
vn -0.6942 0.5880 -0.4151
vn -0.6986 0.6787 -0.2266
vn -0.4836 -0.8016 0.3514
vn -0.7240 -0.6617 0.1947
vn 0.1954 -0.7980 0.5701
vn -0.1881 -0.5363 0.8228
vn -0.0723 -0.8074 0.5856
vn -0.0554 -0.6650 0.7448
vn 0.7393 -0.5079 0.4421
vn 0.6816 -0.6940 0.2318
vn 0.6863 -0.6766 0.2669
vn 0.4713 -0.6617 0.5831
vn 0.5868 -0.7681 -0.2565
vn 0.7067 -0.6594 -0.2566
vn 0.1770 -0.7980 -0.5761
vn 0.4659 -0.6766 -0.5702
vn 0.6358 -0.5363 -0.5551
vn -0.0583 -0.6507 -0.7571
vn -0.0385 -0.6617 -0.7488
vn -0.4911 -0.7947 -0.3568
vn -0.3987 -0.6773 -0.6183
vn -0.3315 -0.5363 -0.7762
vn 0.4089 0.6617 -0.6284
vn 0.6898 0.4258 -0.5856
vn 0.5577 0.3389 -0.7577
vn -0.3066 -0.1256 -0.9435
vn -0.0247 0.3304 -0.9435
vn 0.3066 0.1256 -0.9435
vn 0.0247 -0.3304 -0.9435
vn -0.5746 -0.3304 -0.7488
vn -0.5563 -0.3434 -0.7568
vn -0.8897 -0.3304 -0.3151
vn -0.8407 -0.5363 -0.0754
vn -0.7121 -0.6766 -0.1875
vn -0.7060 -0.6794 -0.2000
vn -0.9050 0.3304 -0.2680
vn -0.9050 0.3304 0.2680
vn -0.8026 0.1256 0.5831
vn -0.8897 -0.3304 0.3151
vn -0.7947 -0.1876 0.5774
vn -0.7947 -0.1876 -0.5774
vn -0.6071 0.7947 0.0000
vn -0.3066 -0.1256 0.9435
vn -0.0247 0.3304 0.9435
vn -0.3035 0.1876 0.9342
vn 0.3066 0.1256 0.9435
vn 0.6898 0.4258 0.5856
vn 0.5577 0.3389 0.7577
vn 0.0247 -0.3304 0.9435
vn 0.3035 -0.1876 0.9342
vn -0.4089 -0.6617 0.6284
vn 0.8026 -0.1256 0.5831
vn 0.8897 0.3304 0.3151
vn 0.7947 0.1876 0.5774
vn 0.8026 -0.1256 -0.5831
vn 0.8897 0.3304 -0.3151
vn 0.9050 -0.3304 0.2680
vn 0.7240 0.6617 0.1947
vn 0.6022 -0.7983 -0.0097
vn 0.9050 -0.3304 -0.2680
# 100 vertex normals

vt 0.8352 0.5154 0.9995
vt 0.8311 0.4692 0.9995
vt 0.9995 0.0005 0.9995
vt 0.9995 0.9995 0.9995
vt 0.6183 0.8141 0.9995
vt 0.0005 0.9995 0.9995
vt 0.5730 0.8244 0.9995
vt 0.2378 0.7095 0.9995
vt 0.2140 0.6697 0.9995
vt 0.0005 0.0005 0.9995
vt 0.6316 0.1946 0.9995
vt 0.5889 0.1764 0.9995
vt 0.2502 0.2805 0.9995
vt 0.2197 0.3154 0.9995
vt 0.5906 0.1891 0.0005
vt 0.3227 0.2131 0.0005
vt 0.9995 0.0005 0.0005
vt 0.0005 0.0005 0.0005
vt 0.1814 0.4420 0.0005
vt 0.1576 0.5000 0.0005
vt 0.0005 0.9995 0.0005
vt 0.3469 0.8062 0.0005
vt 0.4094 0.8109 0.0005
vt 0.9995 0.9995 0.0005
vt 0.6773 0.7869 0.0005
vt 0.8186 0.5580 0.0005
vt 0.8424 0.5000 0.0005
vt 0.6531 0.1938 0.0005
vt 0.5000 0.1636 0.9995
vt 0.5829 0.1913 0.9995
vt 0.4171 0.1913 0.9995
vt 0.2338 0.3401 0.9995
vt 0.1993 0.5000 0.9995
vt 0.2522 0.6627 0.9995
vt 0.3866 0.7909 0.9995
vt 0.5000 0.8243 0.9995
vt 0.6134 0.7909 0.9995
vt 0.7478 0.6627 0.9995
vt 0.8007 0.5000 0.9995
vt 0.7662 0.3401 0.9995
vt 0.8186 0.4420 0.9995
vt 0.6773 0.2131 0.9995
vt 0.8424 0.5000 0.9995
vt 0.4094 0.1891 0.9995
vt 0.3469 0.1938 0.9995
vt 0.1576 0.5000 0.9995
vt 0.1814 0.5580 0.9995
vt 0.3227 0.7869 0.9995
vt 0.5906 0.8109 0.9995
vt 0.6531 0.8062 0.9995
vt 0.6134 0.2091 0.0005
vt 0.5000 0.1757 0.0005
vt 0.3866 0.2091 0.0005
vt 0.2522 0.3373 0.0005
vt 0.1993 0.5000 0.0005
vt 0.2338 0.6599 0.0005
vt 0.4171 0.8087 0.0005
vt 0.5000 0.8364 0.0005
vt 0.5829 0.8087 0.0005
vt 0.7662 0.6599 0.0005
vt 0.8007 0.5000 0.0005
vt 0.7478 0.3373 0.0005
vt 0.2378 0.2905 0.0005
vt 0.2140 0.3303 0.0005
vt 0.5730 0.1756 0.0005
vt 0.6183 0.1859 0.0005
vt 0.8311 0.4692 0.0005
vt 0.8352 0.5154 0.0005
vt 0.6316 0.8054 0.0005
vt 0.5889 0.8236 0.0005
vt 0.2378 0.7095 0.0005
vt 0.2140 0.6697 0.0005
vt 0.8590 0.5000 0.9941
vt 0.6605 0.1789 0.9941
vt 0.9419 0.2269 0.8211
vt 0.1946 0.1789 0.0797
vt 0.0059 0.5000 0.1410
vt 0.3395 0.1789 0.0059
vt 0.3469 0.1938 0.0005
vt 0.1410 0.5000 0.0059
vt 0.0581 0.2269 0.1789
vt 0.9203 0.8211 0.8054
vt 0.6773 0.7869 0.9995
vt 0.8186 0.5580 0.9995
vt 0.1410 0.5000 0.9941
vt 0.3395 0.8211 0.9941
vt 0.0581 0.7731 0.8211
vt 0.6605 0.8211 0.0059
vt 0.6531 0.8062 0.0005
vt 0.8590 0.5000 0.0059
vt 0.9419 0.7731 0.1789
vt 0.9941 0.5000 0.8590
vt 0.8211 0.2269 0.9419
vt 0.0797 0.1789 0.8054
vt 0.3684 0.0005 0.8054
vt 0.4111 0.0005 0.8236
vt 0.6605 0.9941 0.1789
vt 0.5906 0.9995 0.1891
vt 0.3227 0.9995 0.2131
vt 0.3227 0.2131 0.9995
vt 0.0797 0.8054 0.1789
vt 0.4111 0.8236 0.0005
vt 0.4692 0.0005 0.1689
vt 0.5154 0.0005 0.1648
vt 0.5730 0.0005 0.1756
vt 0.6183 0.0005 0.1859
vt 0.6773 0.2131 0.0005
vt 0.4094 0.1891 0.0005
vt 0.7622 0.7095 0.0005
vt 0.2905 0.0005 0.7622
vt 0.3303 0.0005 0.7860
vt 0.9995 0.5000 0.1636
vt 0.9995 0.5829 0.1913
vt 0.1789 0.2269 0.9419
vt 0.9419 0.8211 0.2269
vt 0.1648 0.5154 0.0005
vt 0.3684 0.8054 0.0005
vt 0.3817 0.1859 0.0005
vt 0.1689 0.4692 0.0005
vt 0.0797 0.1946 0.1789
vt 0.7622 0.2905 0.0005
vt 0.4270 0.1756 0.0005
vt 0.6605 0.0059 0.1789
vt 0.9419 0.1789 0.2269
vt 0.7095 0.0005 0.7622
vt 0.6697 0.0005 0.7860
vt 0.1648 0.5154 0.9995
vt 0.3817 0.8141 0.9995
vt 0.0797 0.8054 0.8211
vt 0.1946 0.8211 0.9203
vt 0.4846 0.9995 0.8352
vt 0.4270 0.8244 0.9995
vt 0.7622 0.7095 0.9995
vt 0.6605 0.9941 0.8211
vt 0.6183 0.9995 0.8141
vt 0.5730 0.9995 0.8244
vt 0.5906 0.9995 0.8109
vt 0.3227 0.9995 0.7869
vt 0.7095 0.9995 0.2378
vt 0.6697 0.9995 0.2140
vt 0.9995 0.5000 0.8364
vt 0.9995 0.5829 0.8087
vt 0.8211 0.7731 0.0581
vt 0.9419 0.8211 0.7731
vt 0.9419 0.1789 0.7731
vt 0.9995 0.4171 0.8087
vt 0.3154 0.9995 0.2197
vt 0.1789 0.7731 0.0581
vt 0.7498 0.2805 0.9995
vt 0.4111 0.1764 0.9995
vt 0.6605 0.0059 0.8211
vt 0.7803 0.3154 0.9995
vt 0.2805 0.9995 0.2502
vt 0.0059 0.8211 0.3395
vt 0.4111 0.9995 0.1764
vt 0.3227 0.7869 0.0005
vt 0.5906 0.8109 0.0005
vt 0.3684 0.1946 0.9995
vt 0.1689 0.4692 0.9995
vt 0.0797 0.1946 0.8211
vt 0.3227 0.0005 0.7869
vt 0.3684 0.9995 0.1946
vt 0.0797 0.8211 0.1946
vt 0.3227 0.0005 0.2131
vt 0.0005 0.4420 0.1814
vt 0.0005 0.2131 0.3227
vt 0.9203 0.1789 0.1946
vt 0.1814 0.5580 0.0005
vt 0.8186 0.4420 0.0005
vt 0.8054 0.8211 0.9203
vt 0.5308 0.9995 0.8311
vt 0.0059 0.5000 0.8590
vt 0.7860 0.6697 0.0005
vt 0.7860 0.3303 0.0005
vt 0.6531 0.1938 0.9995
vt 0.5906 0.1891 0.9995
vt 0.1814 0.4420 0.9995
vt 0.9995 0.2131 0.3227
vt 0.9995 0.4420 0.1814
vt 0.9941 0.5000 0.1410
vt 0.3469 0.8062 0.9995
vt 0.4094 0.8109 0.9995
vt 0.8054 0.1789 0.0797
vt 0.7860 0.6697 0.9995
# 184 texture coords

g Box003
usemtl 01___Default
s 4
f 1/1/1 2/2/1 3/3/1 
f 1/1/1 3/3/1 4/4/1 
f 5/5/1 1/1/1 4/4/1 
f 5/5/1 4/4/1 6/6/1 
f 7/7/1 5/5/1 6/6/1 
f 8/8/1 7/7/1 6/6/1 
f 9/9/1 8/8/1 6/6/1 
f 9/9/1 6/6/1 10/10/1 
f 3/3/1 2/2/1 11/11/1 
f 3/3/1 11/11/1 12/12/1 
f 10/10/1 3/3/1 12/12/1 
f 10/10/1 12/12/1 13/13/1 
f 10/10/1 13/13/1 14/14/1 
f 9/9/1 10/10/1 14/14/1 
s 8
f 15/15/2 16/16/2 17/17/2 
f 18/18/2 17/17/2 16/16/2 
f 18/18/2 16/16/2 19/19/2 
f 18/18/2 19/19/2 20/20/2 
f 10/21/2 18/18/2 20/20/2 
f 10/21/2 20/20/2 21/22/2 
f 10/21/2 21/22/2 22/23/2 
f 3/24/2 10/21/2 22/23/2 
f 3/24/2 22/23/2 23/25/2 
f 3/24/2 23/25/2 24/26/2 
f 3/24/2 24/26/2 25/27/2 
f 17/17/2 3/24/2 25/27/2 
f 17/17/2 25/27/2 26/28/2 
f 15/15/2 17/17/2 26/28/2 
s 16
f 27/29/3 17/10/3 28/3/3 
f 29/30/3 27/29/3 28/3/3 
f 17/10/3 27/29/3 30/31/3 
f 17/10/3 30/31/3 31/32/3 
f 17/10/3 31/32/3 32/33/3 
f 3/6/3 17/10/3 32/33/3 
f 3/6/3 32/33/3 33/34/3 
f 3/6/3 33/34/3 34/35/3 
f 3/6/3 34/35/3 35/36/3 
f 4/4/3 3/6/3 35/36/3 
f 4/4/3 35/36/3 36/37/3 
f 4/4/3 36/37/3 37/38/3 
f 4/4/3 37/38/3 38/39/3 
f 28/3/3 4/4/3 38/39/3 
f 28/3/3 38/39/3 39/40/3 
f 29/30/3 28/3/3 39/40/3 
s 32
f 40/41/4 41/42/4 42/3/4 
f 43/43/4 40/41/4 42/3/4 
f 43/43/4 42/3/4 6/4/4 
f 42/3/4 41/42/4 44/44/4 
f 42/3/4 44/44/4 45/45/4 
f 28/10/4 42/3/4 45/45/4 
f 28/10/4 45/45/4 46/46/4 
f 4/6/4 28/10/4 46/46/4 
f 4/6/4 46/46/4 47/47/4 
f 4/6/4 47/47/4 48/48/4 
f 6/4/4 4/6/4 48/48/4 
f 6/4/4 48/48/4 49/49/4 
f 6/4/4 49/49/4 50/50/4 
f 43/43/4 6/4/4 50/50/4 
s 64
f 51/51/5 52/52/5 18/17/5 
f 18/17/5 52/52/5 53/53/5 
f 42/18/5 18/17/5 53/53/5 
f 42/18/5 53/53/5 54/54/5 
f 42/18/5 54/54/5 55/55/5 
f 6/21/5 42/18/5 55/55/5 
f 6/21/5 55/55/5 56/56/5 
f 6/21/5 56/56/5 57/57/5 
f 6/21/5 57/57/5 58/58/5 
f 10/24/5 6/21/5 58/58/5 
f 10/24/5 58/58/5 59/59/5 
f 10/24/5 59/59/5 60/60/5 
f 10/24/5 60/60/5 61/61/5 
f 18/17/5 10/24/5 61/61/5 
f 18/17/5 61/61/5 62/62/5 
f 51/51/5 18/17/5 62/62/5 
s 2
f 63/63/6 64/64/6 17/18/7 
f 65/65/8 63/63/6 17/18/7 
f 66/66/8 65/65/8 17/18/7 
f 66/66/8 17/18/7 18/17/6 
f 67/67/7 66/66/8 18/17/6 
f 68/68/7 67/67/7 18/17/6 
f 68/68/7 18/17/6 42/24/7 
f 69/69/8 68/68/7 42/24/7 
f 70/70/8 69/69/8 42/24/7 
f 70/70/8 42/24/7 28/21/8 
f 71/71/9 70/70/8 28/21/8 
f 72/72/9 71/71/9 28/21/8 
f 72/72/9 28/21/8 17/18/7 
f 72/72/9 17/18/7 64/64/6 
s off
f 73/73/10 74/74/10 75/75/10 
f 76/76/11 62/54/11 61/55/11 
f 61/55/12 77/77/12 76/76/12 
f 78/78/13 26/79/13 25/20/13 
f 25/20/13 79/80/13 78/78/13 
f 79/80/14 80/81/14 78/78/14 
f 81/82/15 48/83/15 47/84/15 
f 47/84/16 73/73/16 81/82/16 
f 82/85/17 83/86/17 84/87/17 
f 85/88/18 21/89/18 20/27/18 
f 20/27/18 77/90/18 85/88/18 
f 77/90/19 86/91/19 85/88/19 
f 79/92/20 32/39/20 31/40/20 
f 31/40/20 80/93/20 79/92/20 
f 87/94/21 69/95/21 70/96/21 
f 74/97/22 44/98/22 41/99/22 
f 70/96/23 74/74/23 41/100/23 
f 87/101/24 70/102/24 41/99/24 
f 76/76/25 67/103/25 68/104/25 
f 68/104/26 52/52/26 51/53/26 
f 76/76/27 68/104/27 51/53/27 
f 78/78/28 65/105/28 66/106/28 
f 66/106/29 16/107/29 15/108/29 
f 78/78/30 66/106/30 15/108/30 
f 70/102/31 71/109/31 74/97/31 
f 71/110/32 72/111/32 27/29/32 
f 71/109/33 27/112/33 29/113/33 
f 71/110/34 29/31/34 75/114/34 
f 71/109/35 75/115/35 74/97/35 
f 68/116/36 69/117/36 87/101/36 
f 66/118/37 67/119/37 76/120/37 
f 63/121/38 65/122/38 78/123/38 
f 63/121/39 78/123/39 80/124/39 
f 63/125/40 80/93/40 30/30/40 
f 64/126/41 63/125/41 30/30/41 
f 64/126/42 30/30/42 27/29/42 
f 1/127/43 5/128/43 81/129/43 
f 81/130/44 36/35/44 35/36/44 
f 35/36/44 1/131/44 81/130/44 
f 7/132/45 8/133/45 83/134/45 
f 5/135/46 7/136/46 83/86/46 
f 83/134/47 49/137/47 48/138/47 
f 5/135/48 83/86/48 48/83/48 
f 8/139/49 9/140/49 58/58/49 
f 8/133/50 58/141/50 57/142/50 
f 8/139/51 57/59/51 84/143/51 
f 8/133/52 84/144/52 83/134/52 
f 86/145/53 59/146/53 58/141/53 
f 58/58/54 14/147/54 86/148/54 
f 13/149/55 12/150/55 85/151/55 
f 85/151/56 86/145/56 14/152/56 
f 14/147/57 13/153/57 85/154/57 
f 12/155/58 23/156/58 22/157/58 
f 22/157/59 85/88/59 12/155/59 
f 11/158/60 2/159/60 88/160/60 
f 88/160/61 23/161/61 12/150/61 
f 12/155/62 11/162/62 88/163/62 
f 16/164/63 66/118/63 76/120/63 
f 77/77/64 19/165/64 16/166/64 
f 16/107/65 76/167/65 77/90/65 
f 25/20/66 24/168/66 79/80/66 
f 15/108/67 26/79/67 78/78/67 
f 20/27/68 19/169/68 77/90/68 
f 22/157/69 21/89/69 85/88/69 
f 88/163/70 79/80/70 24/168/70 
f 24/168/71 23/156/71 88/163/71 
f 34/37/72 33/38/72 88/170/72 
f 88/170/73 2/171/73 1/131/73 
f 34/37/74 88/170/74 1/131/74 
f 35/36/75 34/37/75 1/131/75 
f 31/40/76 30/30/76 80/93/76 
f 29/31/77 39/32/77 75/114/77 
f 73/172/78 75/114/78 39/32/78 
f 39/32/78 38/33/78 73/172/78 
f 37/34/79 36/35/79 81/130/79 
f 81/130/80 73/172/80 38/33/80 
f 38/33/80 37/34/80 81/130/80 
f 33/38/81 32/39/81 79/92/81 
f 79/92/81 88/170/81 33/38/81 
f 27/112/82 72/173/82 64/174/82 
f 47/84/83 46/43/83 73/73/83 
f 45/175/84 44/176/84 74/74/84 
f 74/74/85 73/73/85 46/43/85 
f 46/43/85 45/175/85 74/74/85 
f 40/177/86 43/46/86 82/85/86 
f 41/178/87 40/179/87 82/180/87 
f 82/85/88 87/94/88 41/100/88 
f 50/181/89 49/182/89 83/86/89 
f 82/85/90 43/46/90 50/181/90 
f 50/181/90 83/86/90 82/85/90 
f 48/138/91 81/129/91 5/128/91 
f 84/143/92 56/60/92 55/61/92 
f 55/61/92 82/180/92 84/143/92 
f 54/62/93 53/51/93 87/183/93 
f 87/183/94 82/180/94 55/61/94 
f 55/61/94 54/62/94 87/183/94 
f 61/55/95 60/56/95 86/148/95 
f 86/148/95 77/77/95 61/55/95 
f 51/53/96 62/54/96 76/76/96 
f 57/59/97 56/60/97 84/143/97 
f 52/52/98 68/104/98 87/183/98 
f 87/183/98 53/51/98 52/52/98 
f 58/141/99 9/184/99 14/152/99 
f 60/56/100 59/57/100 86/148/100 
# 192 faces

